REM DIRINDEX 1\2\5,1\2\6,1\2\7,1\2\8,1\3\9,1\3\10,1\3\11,1\4\12,1\4\13,1\4\14,1\4\15,1\4\16
REM DIRNAME folder01,folder02,folder03,folder04,folder05,folder06,folder07,folder08,folder09,folder10,folder11,folder12,folder13,folder14,folder15,folder16
TITLE ""
FILE "1200_sec02_0377_0384.mp3" MP3
  TRACK 01 AUDIO
    TITLE "0:"
    INDEX 01 00:00:00
  TRACK 02 AUDIO
    TITLE "12:cjc034_05148"
    INDEX 01 00:00:17
  TRACK 03 AUDIO
    TITLE "0:"
    INDEX 01 00:01:32
  TRACK 04 AUDIO
    TITLE "13:cjc034_05149"
    INDEX 01 00:01:64
  TRACK 05 AUDIO
    TITLE "0:"
    INDEX 01 00:04:64
  TRACK 06 AUDIO
    TITLE "14:cjc034_05150"
    INDEX 01 00:05:24
  TRACK 07 AUDIO
    TITLE "0:"
    INDEX 01 00:06:37
  TRACK 08 AUDIO
    TITLE "15:cjc034_05151"
    INDEX 01 00:06:71
  TRACK 09 AUDIO
    TITLE "0:"
    INDEX 01 00:11:46
  TRACK 10 AUDIO
    TITLE "12:cjc034_05152"
    INDEX 01 00:13:04
  TRACK 11 AUDIO
    TITLE "0:"
    INDEX 01 00:14:25
  TRACK 12 AUDIO
    TITLE "13:cjc034_05153"
    INDEX 01 00:14:60
  TRACK 13 AUDIO
    TITLE "0:"
    INDEX 01 00:15:70
  TRACK 14 AUDIO
    TITLE "14:cjc034_05154"
    INDEX 01 00:16:32
  TRACK 15 AUDIO
    TITLE "0:"
    INDEX 01 00:17:53
  TRACK 16 AUDIO
    TITLE "15:cjc034_05155"
    INDEX 01 00:18:11
  TRACK 17 AUDIO
    TITLE "0:"
    INDEX 01 00:21:13
  TRACK 18 AUDIO
    TITLE "12:cjc034_05156"
    INDEX 01 00:22:48
  TRACK 19 AUDIO
    TITLE "0:"
    INDEX 01 00:23:67
  TRACK 20 AUDIO
    TITLE "13:cjc034_05157"
    INDEX 01 00:24:24
  TRACK 21 AUDIO
    TITLE "0:"
    INDEX 01 00:25:56
  TRACK 22 AUDIO
    TITLE "14:cjc034_05158"
    INDEX 01 00:26:15
  TRACK 23 AUDIO
    TITLE "0:"
    INDEX 01 00:27:34
  TRACK 24 AUDIO
    TITLE "15:cjc034_05159"
    INDEX 01 00:27:65
  TRACK 25 AUDIO
    TITLE "0:"
    INDEX 01 00:31:55
  TRACK 26 AUDIO
    TITLE "12:cjc034_05160"
    INDEX 01 00:33:17
  TRACK 27 AUDIO
    TITLE "0:"
    INDEX 01 00:34:16
  TRACK 28 AUDIO
    TITLE "13:cjc034_05161"
    INDEX 01 00:34:49
  TRACK 29 AUDIO
    TITLE "0:"
    INDEX 01 00:36:52
  TRACK 30 AUDIO
    TITLE "14:cjc034_05162"
    INDEX 01 00:37:10
  TRACK 31 AUDIO
    TITLE "0:"
    INDEX 01 00:38:10
  TRACK 32 AUDIO
    TITLE "15:cjc034_05163"
    INDEX 01 00:38:45
  TRACK 33 AUDIO
    TITLE "0:"
    INDEX 01 00:41:16
  TRACK 34 AUDIO
    TITLE "12:cjc034_05164"
    INDEX 01 00:42:51
  TRACK 35 AUDIO
    TITLE "0:"
    INDEX 01 00:43:52
  TRACK 36 AUDIO
    TITLE "13:cjc034_05165"
    INDEX 01 00:44:09
  TRACK 37 AUDIO
    TITLE "0:"
    INDEX 01 00:47:27
  TRACK 38 AUDIO
    TITLE "14:cjc034_05166"
    INDEX 01 00:47:60
  TRACK 39 AUDIO
    TITLE "0:"
    INDEX 01 00:48:61
  TRACK 40 AUDIO
    TITLE "15:cjc034_05167"
    INDEX 01 00:49:20
  TRACK 41 AUDIO
    TITLE "0:"
    INDEX 01 00:53:53
  TRACK 42 AUDIO
    TITLE "12:cjc034_05168"
    INDEX 01 00:55:12
  TRACK 43 AUDIO
    TITLE "0:"
    INDEX 01 00:56:14
  TRACK 44 AUDIO
    TITLE "13:cjc034_05169"
    INDEX 01 00:56:47
  TRACK 45 AUDIO
    TITLE "0:"
    INDEX 01 00:58:58
  TRACK 46 AUDIO
    TITLE "14:cjc034_05170"
    INDEX 01 00:59:14
  TRACK 47 AUDIO
    TITLE "0:"
    INDEX 01 01:00:17
  TRACK 48 AUDIO
    TITLE "15:cjc034_05171"
    INDEX 01 01:00:53
  TRACK 49 AUDIO
    TITLE "0:"
    INDEX 01 01:04:11
  TRACK 50 AUDIO
    TITLE "12:cjc034_05172"
    INDEX 01 01:05:46
  TRACK 51 AUDIO
    TITLE "0:"
    INDEX 01 01:06:49
  TRACK 52 AUDIO
    TITLE "13:cjc034_05173"
    INDEX 01 01:07:10
  TRACK 53 AUDIO
    TITLE "0:"
    INDEX 01 01:08:31
  TRACK 54 AUDIO
    TITLE "14:cjc034_05174"
    INDEX 01 01:08:70
  TRACK 55 AUDIO
    TITLE "0:"
    INDEX 01 01:09:73
  TRACK 56 AUDIO
    TITLE "15:cjc034_05175"
    INDEX 01 01:10:35
  TRACK 57 AUDIO
    TITLE "0:"
    INDEX 01 01:14:74
  TRACK 58 AUDIO
    TITLE "12:cjc034_05176"
    INDEX 01 01:16:32
  TRACK 59 AUDIO
    TITLE "0:"
    INDEX 01 01:17:49
  TRACK 60 AUDIO
    TITLE "13:cjc034_05177"
    INDEX 01 01:18:07
  TRACK 61 AUDIO
    TITLE "0:"
    INDEX 01 01:19:27
  TRACK 62 AUDIO
    TITLE "14:cjc034_05178"
    INDEX 01 01:19:60
  TRACK 63 AUDIO
    TITLE "0:"
    INDEX 01 01:21:02
  TRACK 64 AUDIO
    TITLE "15:cjc034_05179"
    INDEX 01 01:21:35
  TRACK 65 AUDIO
    TITLE "0:"
    INDEX 01 01:25:53
